name analog
datacolumns 19
datarows 56
range 0.20650000000000002 0.234
endheader
time	ground_force_vx	ground_force_vy	ground_force_vz	ground_force_px	ground_force_py	ground_force_pz	l_ground_force_vx	l_ground_force_vy	l_ground_force_vz	l_ground_force_px	l_ground_force_py	l_ground_force_pz	ground_torque_x	ground_torque_y	ground_torque_z	l_ground_torque_x	l_ground_torque_y	l_ground_torque_z
0.20650000000000002	-0.0	-0.0	-0.0	1.4559710025787354	58.60958099365234	-392.1054992675781	4.454802989959717	-59.65549850463867	-433.6612854003906	-0.0	-0.0	-0.0	-0.0	-0.0	-0.0	98829.6953125	-16384.48828125	665.119140625
0.20700000000000002	-0.0	-0.0	-0.0	1.8414623737335205	58.57773971557617	-392.3952026367188	4.381574630737305	-59.52881622314453	-433.0381774902344	-0.0	-0.0	-0.0	-0.0	-0.0	-0.0	98928.4375	-16469.68359375	622.5595092773438
0.20750000000000002	-0.0	-0.0	-0.0	1.8924270868301392	58.91810607910156	-392.3076477050781	4.701671600341797	-59.61714172363281	-433.5572204589844	-0.0	-0.0	-0.0	-0.0	-0.0	-0.0	98933.6875	-16429.115234375	652.441650390625
0.20800000000000002	-0.0	-0.0	-0.0	1.9626312255859373	58.59107208251953	-391.7407531738281	4.381651878356934	-59.4908561706543	-433.5712890625	-0.0	-0.0	-0.0	-0.0	-0.0	-0.0	98900.8046875	-16866.56640625	706.3173217773438
0.2085	-0.0	-0.0	-0.0	2.011472702026367	58.25094985961914	-392.5968933105469	4.505231380462647	-59.74015426635742	-433.4468994140625	-0.0	-0.0	-0.0	-0.0	-0.0	-0.0	99070.0703125	-16602.130859375	824.9829711914062
0.209	-0.0	-0.0	-0.0	2.030627727508545	58.075443267822266	-393.730712890625	4.311944007873535	-59.33331680297852	-433.8463745117188	-0.0	-0.0	-0.0	-0.0	-0.0	-0.0	99036.1484375	-16764.4609375	688.267822265625
0.2095	-0.0	-0.0	-0.0	2.4086837768554688	58.61701965332031	-393.3683166503906	4.064637184143066	-59.86332702636719	-433.222900390625	-0.0	-0.0	-0.0	-0.0	-0.0	-0.0	99001.1328125	-16977.626953125	818.2786254882812
0.21	-0.0	-0.0	-0.0	2.6036672592163086	58.34518814086914	-392.8841247558594	4.473202705383301	-59.38695907592773	-433.5087890625	-0.0	-0.0	-0.0	-0.0	-0.0	-0.0	99092.9765625	-17081.859375	729.6980590820312
0.2105	-0.0	-0.0	-0.0	2.373387336730957	57.971961975097656	-392.4566040039063	4.365582942962647	-59.6519660949707	-433.2333068847656	-0.0	-0.0	-0.0	-0.0	-0.0	-0.0	98987.4453125	-17066.654296875	770.91455078125
0.211	-0.0	-0.0	-0.0	2.908611536026001	58.30806350708008	-392.58929443359375	4.311811923980713	-59.8123779296875	-432.1853942871094	-0.0	-0.0	-0.0	-0.0	-0.0	-0.0	98799.3203125	-16905.990234375	949.614501953125
0.2115	-0.0	-0.0	-0.0	3.0146617889404297	58.18367385864258	-392.8760681152344	4.309561729431152	-59.88432312011719	-431.83599853515625	-0.0	-0.0	-0.0	-0.0	-0.0	-0.0	98669.3125	-16998.095703125	693.5604858398438
0.212	-0.0	-0.0	-0.0	2.8717145919799805	57.88099670410156	-393.16217041015625	4.596439838409424	-59.3870964050293	-430.70703125	-0.0	-0.0	-0.0	-0.0	-0.0	-0.0	98614.96875	-16983.9296875	925.7044067382812
0.2125	-0.0	-0.0	-0.0	3.282448530197144	58.04346084594727	-393.6603088378906	4.540886878967285	-59.49201965332031	-431.3404541015625	-0.0	-0.0	-0.0	-0.0	-0.0	-0.0	98238.8984375	-17161.306640625	949.1102294921876
0.213	-0.0	-0.0	-0.0	3.424365520477295	58.1119270324707	-394.2212219238281	4.365249156951904	-59.60048675537109	-430.7080993652344	-0.0	-0.0	-0.0	-0.0	-0.0	-0.0	98469.890625	-16865.974609375	913.7108764648438
0.2135	-0.0	-0.0	-0.0	3.3545022010803223	58.46860885620117	-395.34521484375	4.380472660064697	-59.49379348754883	-429.3180541992188	-0.0	-0.0	-0.0	-0.0	-0.0	-0.0	98368.390625	-17368.1953125	1002.7192993164062
0.214	-0.0	-0.0	-0.0	3.0672106742858887	58.238399505615234	-393.22705078125	4.436879634857178	-59.44049835205078	-430.3600769042969	-0.0	-0.0	-0.0	-0.0	-0.0	-0.0	98194.46875	-17283.517578125	901.9789428710938
0.2145	-0.0	-0.0	-0.0	2.854736328125	58.701393127441406	-393.72412109375	4.542450904846191	-59.45747375488281	-430.4323120117188	-0.0	-0.0	-0.0	-0.0	-0.0	-0.0	98157.5234375	-17196.322265625	1026.75341796875
0.215	-0.0	-0.0	-0.0	2.3919756412506104	58.14859008789063	-392.7378234863281	4.631117820739746	-59.33512878417969	-430.5754089355469	-0.0	-0.0	-0.0	-0.0	-0.0	-0.0	98295.5703125	-17388.98828125	1044.3316650390625
0.2155	-0.0	-0.0	-0.0	2.1231133937835693	58.130706787109375	-392.0287780761719	4.578489303588867	-59.299015045166016	-430.080322265625	-0.0	-0.0	-0.0	-0.0	-0.0	-0.0	98293.1875	-17555.189453125	1162.9466552734375
0.216	-0.0	-0.0	-0.0	2.6763153076171875	58.34482192993164	-391.8883056640625	4.843739032745361	-59.24592590332031	-430.71136474609375	-0.0	-0.0	-0.0	-0.0	-0.0	-0.0	98581.0625	-17458.453125	1104.0255126953125
0.2165	-0.0	-0.0	-0.0	2.2838149070739746	57.91695022583008	-392.3827819824219	4.8964924812316895	-59.42260360717773	-429.8763732910156	-0.0	-0.0	-0.0	-0.0	-0.0	-0.0	98563.4921875	-17676.640625	1115.62255859375
0.217	-0.0	-0.0	-0.0	2.44486665725708	58.54093933105469	-392.87841796875	4.754595756530762	-59.31692123413086	-431.41204833984375	-0.0	-0.0	-0.0	-0.0	-0.0	-0.0	98506.421875	-17649.171875	1347.0037841796875
0.2175	-0.0	-0.0	-0.0	2.051841735839844	57.827972412109375	-392.87603759765625	5.145040512084961	-59.3521728515625	-431.2716369628906	-0.0	-0.0	-0.0	-0.0	-0.0	-0.0	98534.4375	-17860.474609375	1276.1143798828125
0.218	-0.0	-0.0	-0.0	2.1057939529418945	57.98813629150391	-391.6765747070313	5.056588649749756	-59.17552947998047	-430.5738830566406	-0.0	-0.0	-0.0	-0.0	-0.0	-0.0	98709.109375	-17958.537109375	1299.72607421875
0.2185	-0.0	-0.0	-0.0	2.195886611938477	57.91722869873047	-392.736083984375	5.003312110900879	-59.369911193847656	-431.690673828125	-0.0	-0.0	-0.0	-0.0	-0.0	-0.0	98760.234375	-18310.259765625	1436.0994873046875
0.219	-0.0	-0.0	-0.0	2.996368169784546	57.98897933959961	-394.4291687011719	5.180772304534912	-59.56389617919922	-430.01611328125	-0.0	-0.0	-0.0	-0.0	-0.0	-0.0	98730.1796875	-18324.001953125	1418.4246826171875
0.2195	-0.0	-0.0	-0.0	2.9624085426330566	58.32611083984375	-394.08392333984375	5.269505500793457	-59.6346321105957	-431.5530700683594	-0.0	-0.0	-0.0	-0.0	-0.0	-0.0	98867.2265625	-18214.1171875	1448.0146484375
0.22	-0.0	-0.0	-0.0	3.1050164699554443	57.88275909423828	-394.5706787109375	5.375133514404297	-59.61652755737305	-431.3424072265625	-0.0	-0.0	-0.0	-0.0	-0.0	-0.0	98668.0078125	-18231.2734375	1436.367919921875
0.2205	-0.0	-0.0	-0.0	3.657630920410156	58.30570602416992	-393.08929443359375	4.826028823852539	-59.6881217956543	-431.2054443359375	-0.0	-0.0	-0.0	-0.0	-0.0	-0.0	98592.8984375	-18262.634765625	1441.8094482421875
0.221	-0.0	-0.0	-0.0	3.9424781799316406	58.306922912597656	-395.06585693359375	4.6486358642578125	-60.12883758544922	-430.9252014160156	-0.0	-0.0	-0.0	-0.0	-0.0	-0.0	98538.171875	-18050.697265625	1512.828857421875
0.2215	-0.0	-0.0	-0.0	4.24607515335083	58.21928787231445	-395.41888427734375	4.294938087463379	-60.16428756713867	-430.6445007324219	-0.0	-0.0	-0.0	-0.0	-0.0	-0.0	98420.046875	-18151.1640625	1411.646728515625
0.222	-0.0	-0.0	-0.0	4.42445707321167	58.52072143554688	-396.62109375	4.097915649414063	-60.37774658203125	-430.7853393554688	-0.0	-0.0	-0.0	-0.0	-0.0	-0.0	98420.984375	-17884.0390625	1304.749267578125
0.2225	-0.0	-0.0	-0.0	4.22688627243042	58.14909744262695	-397.2685241699219	3.7258529663085938	-60.25544738769531	-430.08734130859375	-0.0	-0.0	-0.0	-0.0	-0.0	-0.0	98266.9609375	-17568.05859375	1274.864501953125
0.223	-0.0	-0.0	-0.0	4.39049243927002	58.21908950805664	-396.545166015625	3.708754777908325	-60.30668640136719	-430.2284240722656	-0.0	-0.0	-0.0	-0.0	-0.0	-0.0	98361.3828125	-17777.208984375	1204.083740234375
0.2235	-0.0	-0.0	-0.0	4.286944389343262	58.06245040893555	-397.5374145507813	3.7258529663085938	-60.35940170288086	-430.2218017578125	-0.0	-0.0	-0.0	-0.0	-0.0	-0.0	98102.8125	-17600.5625	1084.887939453125
0.224	-0.0	-0.0	-0.0	4.532939434051514	58.132415771484375	-396.984619140625	3.301238775253296	-60.30485534667969	-430.7118835449219	-0.0	-0.0	-0.0	-0.0	-0.0	-0.0	98229.4140625	-17519.869140625	1131.928955078125
0.2245	-0.0	-0.0	-0.0	4.424295902252197	58.21888732910156	-397.27191162109375	3.332996368408203	-60.11342239379883	-430.5122375488281	-0.0	-0.0	-0.0	-0.0	-0.0	-0.0	97970.28125	-17403.171875	1107.9793701171875
0.225	-0.0	-0.0	-0.0	4.087009429931641	58.39999008178711	-398.2862854003906	2.982522964477539	-59.90114212036133	-429.8056640625	-0.0	-0.0	-0.0	-0.0	-0.0	-0.0	98299.078125	-17586.291015625	1024.37841796875
0.2255	-0.0	-0.0	-0.0	4.133761405944824	58.41357803344727	-399.6682739257813	3.2463159561157227	-59.66963577270508	-429.5981140136719	-0.0	-0.0	-0.0	-0.0	-0.0	-0.0	98393.1796875	-17710.189453125	1055.05810546875
0.226	-0.0	-0.0	-0.0	3.644264698028565	58.55867767333984	-398.3087463378906	3.318298578262329	-59.36881637573242	-430.44830322265625	-0.0	-0.0	-0.0	-0.0	-0.0	-0.0	98311.15625	-17324.09375	1137.7283935546875
0.2265	-0.0	-0.0	-0.0	3.763327121734619	58.57853317260742	-396.411865234375	3.65377688407898	-59.01820755004883	-429.7292785644531	-0.0	-0.0	-0.0	-0.0	-0.0	-0.0	98120.0859375	-17674.935546875	1043.4625244140625
0.227	-0.0	-0.0	-0.0	3.681209802627564	58.23494338989258	-398.2428588867188	3.5620269775390625	-59.2114486694336	-430.0244445800781	-0.0	-0.0	-0.0	-0.0	-0.0	-0.0	98182.5625	-17459.998046875	1054.4085693359375
0.2275	-0.0	-0.0	-0.0	3.2844254970550537	58.63515090942383	-397.4068603515625	3.637142181396485	-58.5737190246582	-429.66357421875	-0.0	-0.0	-0.0	-0.0	-0.0	-0.0	97985.8515625	-17548.623046875	1203.9346923828125
0.228	-0.0	-0.0	-0.0	3.0455517768859863	58.36025619506836	-398.43603515625	3.5648672580718994	-58.3642692565918	-429.2495727539063	-0.0	-0.0	-0.0	-0.0	-0.0	-0.0	98093.6015625	-17434.236328125	1209.432373046875
0.2285	-0.0	-0.0	-0.0	3.126453161239624	58.2791748046875	-398.77252197265625	3.702576160430908	-57.44511413574219	-429.649658203125	-0.0	-0.0	-0.0	-0.0	-0.0	-0.0	98069.8671875	-17140.068359375	1120.745849609375
0.229	-0.0	-0.0	-0.0	3.158898115158081	58.15374755859375	-397.61669921875	3.427119016647339	-57.42532730102539	-429.6773376464844	-0.0	-0.0	-0.0	-0.0	-0.0	-0.0	97912.4375	-17142.3359375	1085.4207763671875
0.2295	-0.0	-0.0	-0.0	3.028766632080078	58.29566955566406	-399.0759582519531	3.4721949100494385	-57.16029739379883	-429.8695373535156	-0.0	-0.0	-0.0	-0.0	-0.0	-0.0	97868.1796875	-16928.443359375	995.2698364257812
0.23	-0.0	-0.0	-0.0	2.7655258178710938	58.5061149597168	-401.1308898925781	2.943615674972534	-56.72649383544922	-429.10736083984375	-0.0	-0.0	-0.0	-0.0	-0.0	-0.0	97978.4765625	-16468.6484375	920.7232055664062
0.2305	-0.0	-0.0	-0.0	2.534534215927124	58.841983795166016	-401.0862731933594	2.9637699127197266	-56.546024322509766	-429.0440368652344	-0.0	-0.0	-0.0	-0.0	-0.0	-0.0	97785.4609375	-16271.8642578125	870.901123046875
0.231	-0.0	-0.0	-0.0	1.7793207168579102	58.40117263793945	-401.69140625	2.322519063949585	-56.63016891479492	-429.4397277832031	-0.0	-0.0	-0.0	-0.0	-0.0	-0.0	97643.3125	-15865.6865234375	634.5133666992188
0.2315	-0.0	-0.0	-0.0	1.6215977668762207	58.79447555541992	-401.856201171875	1.4717086553573608	-56.06837844848633	-429.43896484375	-0.0	-0.0	-0.0	-0.0	-0.0	-0.0	97453.140625	-15621.921875	386.0898132324219
0.232	-0.0	-0.0	-0.0	1.0390641689300537	58.78936004638672	-405.80377197265625	0.7983970642089844	-55.85093307495117	-427.5049133300781	-0.0	-0.0	-0.0	-0.0	-0.0	-0.0	97035.2421875	-15139.19140625	133.14866638183594
0.2325	-0.0	-0.0	-0.0	0.687218427658081	59.0723991394043	-407.5289001464844	-0.6209754943847656	-55.30514907836914	-426.88775634765625	-0.0	-0.0	-0.0	-0.0	-0.0	-0.0	96737.1171875	-14749.439453125	-155.9222869873047
0.233	-0.0	-0.0	-0.0	0.3044325113296509	59.39761734008789	-411.22503662109375	-1.8215031623840328	-55.85562133789063	-428.2034301757813	-0.0	-0.0	-0.0	-0.0	-0.0	-0.0	96636.484375	-14531.7685546875	-378.3770446777344
0.2335	-0.0	-0.0	-0.0	0.2578788101673126	59.72314453125	-411.7849426269531	-2.979653835296631	-56.18821334838867	-426.8889770507813	-0.0	-0.0	-0.0	-0.0	-0.0	-0.0	96483.09375	-14086.1240234375	-632.3712768554688
0.234	-0.0	-0.0	-0.0	0.1570625603199005	59.21355438232422	-411.623779296875	-3.7989113330841056	-56.136226654052734	-428.2036743164063	-0.0	-0.0	-0.0	-0.0	-0.0	-0.0	96690.8828125	-13412.4755859375	-901.6475830078124
